<?xml version="1.0" encoding="utf-8"?>
<!-- Generator: Adobe Illustrator 23.0.1, SVG Export Plug-In . SVG Version: 6.00 Build 0)  -->
<svg version="1.1" id="Layer_1" xmlns="http://www.w3.org/2000/svg" xmlns:xlink="http://www.w3.org/1999/xlink" x="0px" y="0px"
	 viewBox="0 0 72 72" style="enable-background:new 0 0 72 72;" xml:space="preserve">
<style type="text/css">
	.st0{fill:#2F2F31;}
</style>
<g transform="translate(-19.8 -41.878)">
	<path class="st0" d="M38.9,102.2c0,2.2,1.6,4,3.8,4.3c2.2,0.3,4.2-1.3,4.5-3.4c0-0.1,0-0.1,0-0.2v-3.5h-8.2V102.2z"/>
	<rect x="38.9" y="90.2" class="st0" width="8.2" height="7.2"/>
	<rect x="38.9" y="86" class="st0" width="8.2" height="2"/>
	<rect x="24.6" y="86" class="st0" width="8.2" height="2"/>
	<path class="st0" d="M28.2,106.6c2.2,0.3,4.2-1.3,4.5-3.4c0-0.1,0-0.1,0-0.2v-3.5h-8.2v2.9C24.5,104.5,26.1,106.3,28.2,106.6z"/>
	<path class="st0" d="M29.1,49.2c-2.2-0.3-4.2,1.3-4.5,3.4c0,0.1,0,0.1,0,0.2v0.4h8.2C32.7,51.2,31.1,49.5,29.1,49.2z"/>
	<rect x="38.9" y="55.3" class="st0" width="8.2" height="2"/>
	<path class="st0" d="M43.4,49.2c-2.2-0.3-4.2,1.3-4.5,3.4c0,0.1,0,0.1,0,0.2v0.4h8.2C47,51.2,45.4,49.5,43.4,49.2z"/>
	<rect x="24.6" y="55.3" class="st0" width="8.2" height="2"/>
	<path class="st0" d="M32.8,79c0-1.7,1.4-3,3-3c1.6,0.1,3,1.4,3,3V84h8.2v-1c0-4.4-3.1-8.2-7.4-9.1c-0.5-0.1-0.8-0.5-0.9-1v-0.4
		c0-0.5,0.4-0.9,0.9-1c4.3-0.9,7.4-4.7,7.4-9.1v-2.9h-8.2v8.2c0,1.7-1.4,3-3,3c-1.6-0.1-3-1.4-3-3v-8.2h-8.2v3
		c0,4.4,3.1,8.2,7.4,9.1c0.5,0.1,0.8,0.5,0.9,1V73c0,0.5-0.4,0.9-0.9,1c-4.3,0.9-7.4,4.7-7.4,9.1V84h8.2C32.8,84,32.8,79,32.8,79z"
		/>
	<rect x="24.6" y="90.2" class="st0" width="8.2" height="7.2"/>
	<path class="st0" d="M57.4,104.8c0.1,0.5,0.5,0.9,1,0.9h10.3v-1.9h-9.2V53.1h9.2v-1.9H58.4c-0.5,0-1,0.4-1,0.9v33.7h-6.2v1.9h6.2
		V104.8z"/>
	<g transform="translate(60.541 49.422)">
		<path class="st0" d="M13.7,42c1.2-0.4,2.4-0.7,3.6-1c4.8-1.3,8.3-5.3,8.8-10.3c0.5-3.9-0.9-7.9-3.9-10.5c-1.2,0.6-2.5,1.2-3.6,1.7
			c0.7,0.6,1.3,1.2,2,1.7v0.1h-7.5c-0.3,0-0.7,0.2-0.9,0.4c-0.8,0.7-1.4,1.6-1.7,2.6c0,0.1-0.1,0.4-0.1,0.6h12c1,4.6-2,9.2-6.6,10.1
			c-0.2,0-0.4,0.1-0.6,0.1c-1.8,0.3-3.5,1-5.1,1.9c-3.1,1.9-5,5.1-5.3,8.7c0,0.4-0.1,1-0.1,1.4c1.3,0.6,2.6,1.2,3.9,1.6
			c-0.1-0.1-0.1-0.1-0.1-0.3C7.9,47.1,10.1,43.4,13.7,42z"/>
		<path class="st0" d="M8.7,7.3c-1.3,0.4-2.5,1-3.8,1.6c0,3.4,1.5,6.7,4,9c1.2-0.6,2.5-1.2,3.5-1.7c-0.6-0.6-1.3-1.2-2-1.7
			c0-0.1,0.1-0.1,0.1-0.1c0,0,0,0,0,0h7.4c0.4,0,0.8-0.2,1.2-0.4c0.9-0.9,1.5-2,1.9-3.2H9C8.5,9.6,8.4,8.4,8.7,7.3z"/>
		<path class="st0" d="M22.6,51.4c1.3-0.4,2.5-1,3.8-1.6c0-3.4-1.5-6.7-4-9l-3.5,1.7c0.7,0.6,1.4,1.2,2,1.9c0,0.1-0.1,0.1-0.1,0.1
			c0,0,0,0,0,0h-7.4c-0.4,0-0.8,0.1-1.2,0.4c-0.8,0.8-1.4,1.9-1.7,3h12c0.3,1,0.3,2,0.1,3V51.4z"/>
		<path class="st0" d="M22.6,7.3c0,0.1,0.1,0.1,0.1,0.3c0.5,3.3-1,6.6-3.9,8.4c-1.3,0.7-2.7,1.2-4.2,1.4c-6.2,1.2-10.3,6.9-9.5,13.1
			c0.2,2.8,1.5,5.4,3.5,7.4L9,38.4l3.5-1.7c-0.6-0.6-1.3-1.2-2-1.9c0-0.1,0.1-0.1,0.1-0.1c0,0,0,0,0,0h7.5c0.3,0,0.6-0.1,0.9-0.3
			c0.8-0.7,1.4-1.6,1.7-2.6c0-0.1,0.1-0.3,0.1-0.6h-12c-1-4.5,1.8-8.9,6.2-10.1c1.7-0.4,3.4-0.9,5.1-1.6c3.6-1.7,6-5.2,6.4-9.1
			c0-0.4,0.1-1,0.1-1.4C25.2,8.3,23.9,7.7,22.6,7.3z"/>
	</g>
</g>
</svg>
