<?xml version="1.0" encoding="utf-8"?>
<!-- Generator: Adobe Illustrator 23.0.1, SVG Export Plug-In . SVG Version: 6.00 Build 0)  -->
<svg version="1.1" id="Layer_1" xmlns="http://www.w3.org/2000/svg" xmlns:xlink="http://www.w3.org/1999/xlink" x="0px" y="0px"
	 viewBox="0 0 72 72" style="enable-background:new 0 0 72 72;" xml:space="preserve">
<style type="text/css">
	.st0{fill:#2F2F31;}
	.st1{fill:#F15F23;}
</style>
<g transform="translate(-19.8 -41.878)">
	<path class="st0" d="M45.9,102.2c0,2.2,1.6,4,3.8,4.3s4.2-1.3,4.5-3.4c0-0.1,0-0.1,0-0.2v-3.5H46L45.9,102.2L45.9,102.2z"/>
	<rect x="45.9" y="90.2" class="st0" width="8.2" height="7.2"/>
	<rect x="45.9" y="86" class="st0" width="8.2" height="2"/>
	<rect x="31.6" y="86" class="st0" width="8.2" height="2"/>
	<path class="st0" d="M35.2,106.6c2.2,0.3,4.2-1.3,4.5-3.4c0-0.1,0-0.1,0-0.2v-3.5h-8.2v2.9C31.5,104.5,33.1,106.3,35.2,106.6z"/>
	<path class="st0" d="M36.1,49.2c-2.2-0.3-4.2,1.3-4.5,3.4c0,0.1,0,0.1,0,0.2v0.4h8.2C39.7,51.2,38.1,49.5,36.1,49.2z"/>
	<rect x="45.9" y="55.3" class="st0" width="8.2" height="2"/>
	<path class="st0" d="M50.4,49.2c-2.2-0.3-4.2,1.3-4.5,3.4c0,0.1,0,0.1,0,0.2v0.4h8.2C54,51.2,52.4,49.5,50.4,49.2z"/>
	<rect x="31.6" y="55.3" class="st0" width="8.2" height="2"/>
	<path class="st0" d="M39.8,79c0-1.7,1.4-3,3-3c1.6,0.1,3,1.4,3,3v5H54v-1c0-4.4-3.1-8.2-7.4-9.1c-0.5-0.1-0.8-0.5-0.9-1v-0.4
		c0-0.5,0.4-0.9,0.9-1c4.3-0.9,7.4-4.7,7.4-9.1v-2.9h-8.2v8.2c0,1.7-1.4,3-3,3c-1.6-0.1-3-1.4-3-3v-8.2h-8.2v3
		c0,4.4,3.1,8.2,7.4,9.1c0.5,0.1,0.8,0.5,0.9,1V73c0,0.5-0.4,0.9-0.9,1c-4.3,0.9-7.4,4.7-7.4,9.1V84h8.2V79z"/>
	<rect x="31.6" y="90.2" class="st0" width="8.2" height="7.2"/>
	<path class="st0" d="M64.4,103.8c0.1,0.5,0.5,0.9,1,0.9h10.3v-1.9h-9.2V70.1h9.2v-1.9H65.4c-0.5,0-1,0.4-1,0.9v16.7h-6.2v1.9h6.2
		V103.8z"/>
	<g transform="translate(60.541 49.422)">
		<path class="st1" d="M14.8,43.6c0.6-0.2,1.2-0.4,1.8-0.5c2.4-0.7,4.2-2.7,4.4-5.2c0.3-2-0.5-4-2-5.3c-0.6,0.3-1.3,0.6-1.8,0.9
			c0.4,0.3,0.7,0.6,1,0.9v0.1h-3.8c-0.2,0-0.4,0.1-0.5,0.2c-0.4,0.4-0.7,0.8-0.9,1.3c0,0.1-0.1,0.2-0.1,0.3h6c0.5,2.3-1,4.6-3.3,5.1
			c-0.1,0-0.2,0.1-0.3,0.1c-0.9,0.2-1.8,0.5-2.6,1c-1.6,1-2.5,2.6-2.7,4.4c0,0.2-0.1,0.5-0.1,0.7c0.7,0.3,1.3,0.6,2,0.8
			c-0.1-0.1-0.1-0.1-0.1-0.2C11.9,46.1,13,44.3,14.8,43.6z"/>
		<path class="st1" d="M12.3,26.2c-0.7,0.2-1.3,0.5-1.9,0.8c0,1.7,0.8,3.4,2,4.5c0.6-0.3,1.3-0.6,1.8-0.9c-0.3-0.3-0.7-0.6-1-0.9
			c0-0.1,0.1-0.1,0.1-0.1l0,0h3.7c0.2,0,0.4-0.1,0.6-0.2c0.5-0.5,0.8-1,1-1.6h-6C12.2,27.3,12.1,26.7,12.3,26.2z"/>
		<path class="st1" d="M19.2,48.3c0.7-0.2,1.3-0.5,1.9-0.8c0-1.7-0.8-3.4-2-4.5l-1.8,0.9c0.4,0.3,0.7,0.6,1,1c0,0.1-0.1,0.1-0.1,0.1
			l0,0h-3.7c-0.2,0-0.4,0.1-0.6,0.2c-0.4,0.4-0.7,1-0.9,1.5h6c0.2,0.5,0.2,1,0.1,1.5V48.3z"/>
		<path class="st1" d="M19.2,26.2c0,0.1,0.1,0.1,0.1,0.2c0.3,1.7-0.5,3.3-2,4.2c-0.7,0.4-1.4,0.6-2.1,0.7c-3.1,0.6-5.2,3.5-4.8,6.6
			c0.1,1.4,0.8,2.7,1.8,3.7l0.2,0.3l1.8-0.9c-0.3-0.3-0.7-0.6-1-1c0-0.1,0.1-0.1,0.1-0.1l0,0H17c0.2,0,0.3-0.1,0.5-0.2
			c0.4-0.4,0.7-0.8,0.9-1.3c0-0.1,0.1-0.2,0.1-0.3h-6c-0.5-2.3,0.9-4.5,3.1-5.1c0.9-0.2,1.7-0.5,2.6-0.8c1.8-0.9,3-2.6,3.2-4.6
			c0-0.2,0.1-0.5,0.1-0.7C20.6,26.7,19.9,26.4,19.2,26.2z"/>
	</g>
</g>
</svg>
