<svg xmlns="http://www.w3.org/2000/svg" viewBox="0 0 235.745 34.798"><defs><style>.a{fill:#fff;}</style></defs><g transform="translate(0 0.004)"><g transform="translate(43.948 5.18)"><path class="a" d="M408.518,32.832v8.95a1.552,1.552,0,0,1-.444,1.119,1.5,1.5,0,0,1-1.135.461,1.469,1.469,0,0,1-1.1-.461,1.552,1.552,0,0,1-.444-1.119V32.865a4.927,4.927,0,0,0-.888-3.093,3.428,3.428,0,0,0-2.9-1.152,5.024,5.024,0,0,0-2.386.658,4.622,4.622,0,0,0-1.678,1.629,4.227,4.227,0,0,0-.609,2.2v8.67a1.552,1.552,0,0,1-.444,1.119,1.5,1.5,0,0,1-1.135.461,1.481,1.481,0,0,1-1.119-.444,1.575,1.575,0,0,1-.428-1.135V27.448a1.552,1.552,0,0,1,.444-1.119,1.462,1.462,0,0,1,1.1-.461,1.5,1.5,0,0,1,1.135.461,2.192,2.192,0,0,1,.444,1.366v.42A6.243,6.243,0,0,1,402.02,25.7C405.446,25.692,408.518,28.09,408.518,32.832Z" transform="translate(-275.781 -20.312)"/><path class="a" d="M124.619,13.044a1.5,1.5,0,0,1,.461,1.135V34.021a1.673,1.673,0,0,1-.494,1.152,1.6,1.6,0,0,1-1.185.461,1.568,1.568,0,0,1-1.135-.461,1.542,1.542,0,0,1-.477-1.152V25.5H110.108v8.522a1.512,1.512,0,0,1-.494,1.152,1.627,1.627,0,0,1-1.152.461,1.546,1.546,0,0,1-1.168-.461,1.6,1.6,0,0,1-.444-1.152V14.179a1.518,1.518,0,0,1,.461-1.119A1.6,1.6,0,0,1,108.5,12.6a1.568,1.568,0,0,1,1.135.461,1.5,1.5,0,0,1,.477,1.119v8.292h11.681V14.179a1.474,1.474,0,0,1,.494-1.119,1.734,1.734,0,0,1,2.336-.016Z" transform="translate(-106.85 -12.6)"/><path class="a" d="M176.546,35.081a1.576,1.576,0,0,1-1.086.411H163.877a5.7,5.7,0,0,0,1.826,3.85,5.591,5.591,0,0,0,3.9,1.448,6.085,6.085,0,0,0,2.567-.461,6.529,6.529,0,0,0,1.744-1.185,1.852,1.852,0,0,1,.954-.3,1.242,1.242,0,0,1,.938.395,1.3,1.3,0,0,1,.378.921,1.623,1.623,0,0,1-.658,1.25,7.761,7.761,0,0,1-2.534,1.612,8.283,8.283,0,0,1-3.225.658,9.5,9.5,0,0,1-4.689-1.119,7.8,7.8,0,0,1-3.126-3.126,9.254,9.254,0,0,1-1.1-4.541,10,10,0,0,1,1.135-4.853,8.217,8.217,0,0,1,2.994-3.208,7.712,7.712,0,0,1,7.946-.033,8.27,8.27,0,0,1,2.961,2.994,8.538,8.538,0,0,1,1.152,4.278A1.43,1.43,0,0,1,176.546,35.081Zm-10.76-5.429a5.091,5.091,0,0,0-1.777,3.208h9.707V32.6a4.014,4.014,0,0,0-1.563-2.863,4.957,4.957,0,0,0-3.175-1.119A5.079,5.079,0,0,0,165.786,29.652Z" transform="translate(-138.639 -20.324)"/><path class="a" d="M219.408,42.267a1.521,1.521,0,0,1-.494,1.135,1.539,1.539,0,0,1-1.086.477,1.564,1.564,0,0,1-1.283-.691l-4.409-5.561-4.343,5.561a1.522,1.522,0,0,1-.559.494,1.5,1.5,0,0,1-.691.165,1.545,1.545,0,0,1-1.036-.411,1.25,1.25,0,0,1-.477-.971,1.4,1.4,0,0,1,.362-.987l4.936-6.153-5.067-6.384a1.507,1.507,0,0,1,.148-2.04,1.566,1.566,0,0,1,2.386.2l4.508,5.693,4.245-5.66a1.482,1.482,0,0,1,1.25-.691,1.455,1.455,0,0,1,1.053.411,1.308,1.308,0,0,1,.428.971,1.447,1.447,0,0,1-.362,1.02L214.045,35l5,6.351A1.335,1.335,0,0,1,219.408,42.267Z" transform="translate(-164.589 -20.747)"/><path class="a" d="M261.253,26.329A1.582,1.582,0,0,1,261.7,27.5V41.777a1.552,1.552,0,0,1-.444,1.119,1.5,1.5,0,0,1-1.135.461A1.481,1.481,0,0,1,259,42.913a1.575,1.575,0,0,1-.428-1.135v-.856a7.057,7.057,0,0,1-2.336,1.958,6.559,6.559,0,0,1-3.192.806,7.447,7.447,0,0,1-4.064-1.152,7.921,7.921,0,0,1-2.863-3.208,10.828,10.828,0,0,1,0-9.246,7.973,7.973,0,0,1,2.846-3.208,7.253,7.253,0,0,1,3.981-1.152,7.366,7.366,0,0,1,3.241.724,6.7,6.7,0,0,1,2.386,1.843V27.5A1.636,1.636,0,0,1,259,26.345a1.449,1.449,0,0,1,1.119-.461A1.537,1.537,0,0,1,261.253,26.329ZM256.152,40a5.317,5.317,0,0,0,1.876-2.172,7.5,7.5,0,0,0,0-6.219,5.445,5.445,0,0,0-1.876-2.188,4.8,4.8,0,0,0-2.748-.806,4.887,4.887,0,0,0-2.748.79,5.317,5.317,0,0,0-1.876,2.172,7.58,7.58,0,0,0,0,6.252A5.317,5.317,0,0,0,250.657,40a5.174,5.174,0,0,0,5.5,0Z" transform="translate(-188.225 -20.324)"/><path class="a" d="M310.81,26.329a1.581,1.581,0,0,1,.444,1.168V41.975a8.186,8.186,0,0,1-1.135,4.459,6.811,6.811,0,0,1-3.077,2.649,10.722,10.722,0,0,1-4.376.856,12.51,12.51,0,0,1-3.077-.461,5.5,5.5,0,0,1-2.254-.954c-.679-.35-1.02-.79-1.02-1.316a1.541,1.541,0,0,1,.132-.526,1.248,1.248,0,0,1,1.217-.823,2.5,2.5,0,0,1,.921.2,12.406,12.406,0,0,0,4.113,1.02,5.812,5.812,0,0,0,4.031-1.267,4.444,4.444,0,0,0,1.4-3.471V40.56a5.717,5.717,0,0,1-2.32,2.2,6.9,6.9,0,0,1-3.439.921,7.757,7.757,0,0,1-4.146-1.152,8.022,8.022,0,0,1-2.945-3.208,10.528,10.528,0,0,1,0-9.246,8.072,8.072,0,0,1,2.929-3.208,7.619,7.619,0,0,1,4.1-1.152,7.492,7.492,0,0,1,5.824,2.83V27.5a1.636,1.636,0,0,1,.428-1.152,1.449,1.449,0,0,1,1.119-.461A1.55,1.55,0,0,1,310.81,26.329Zm-5.219,13.688a5.286,5.286,0,0,0,1.958-2.172,6.845,6.845,0,0,0,.707-3.142,6.741,6.741,0,0,0-.707-3.126,5.444,5.444,0,0,0-1.958-2.172,5.253,5.253,0,0,0-2.863-.79,5.191,5.191,0,0,0-2.83.79,5.41,5.41,0,0,0-1.958,2.188,7.187,7.187,0,0,0,0,6.219A5.409,5.409,0,0,0,299.9,40a5.191,5.191,0,0,0,2.83.79A5.329,5.329,0,0,0,305.591,40.017Z" transform="translate(-217.147 -20.324)"/><path class="a" d="M358.982,39.343a8.366,8.366,0,0,1-3.142,3.192,8.953,8.953,0,0,1-8.786,0,8.366,8.366,0,0,1-3.142-3.192,9.2,9.2,0,0,1-1.152-4.607,9.42,9.42,0,0,1,1.152-4.64,8.285,8.285,0,0,1,3.142-3.225,8.953,8.953,0,0,1,8.786,0,8.313,8.313,0,0,1,3.142,3.225,9.375,9.375,0,0,1,1.152,4.64A9.184,9.184,0,0,1,358.982,39.343Zm-2.715-7.782a5.483,5.483,0,0,0-2.007-2.172,5.5,5.5,0,0,0-5.627,0,5.483,5.483,0,0,0-2.007,2.172,6.686,6.686,0,0,0-.74,3.175,6.511,6.511,0,0,0,.74,3.126,5.52,5.52,0,0,0,2.007,2.155,5.5,5.5,0,0,0,5.627,0,5.52,5.52,0,0,0,2.007-2.155,6.51,6.51,0,0,0,.74-3.126A6.59,6.59,0,0,0,356.267,31.561Z" transform="translate(-245.728 -20.324)"/><path class="a" d="M394.88,27.8" transform="translate(-276.411 -21.548)"/><path class="a" d="M480.213,25.12a5.729,5.729,0,0,1,1.168,3.735q0,3.652-2.122,5.215a8.507,8.507,0,0,1-5.182,1.563h-8.456a1.573,1.573,0,0,1-1.579-1.579V14.179a1.573,1.573,0,0,1,1.579-1.579h8.456a6.384,6.384,0,0,1,4.557,1.481,5.62,5.62,0,0,1,1.563,4.278,5.259,5.259,0,0,1-.757,2.813,4.9,4.9,0,0,1-2.2,1.892A6.467,6.467,0,0,1,480.213,25.12ZM475.968,16.5a3.254,3.254,0,0,0-2.353-.806H467.4v6.416h6.285a3.243,3.243,0,0,0,2.237-.872,3.121,3.121,0,0,0,.888-2.386A3.114,3.114,0,0,0,475.968,16.5Zm.971,15.169a3.516,3.516,0,0,0,1.086-2.813q0-3.652-4.146-3.652H467.4v7.4h6.647A4.271,4.271,0,0,0,476.939,31.668Z" transform="translate(-317.125 -12.6)"/><path class="a" d="M514.771,15.757a1.355,1.355,0,0,1-.411-1.1v-.526a1.3,1.3,0,0,1,.444-1.119,2.311,2.311,0,0,1,1.366-.329,2.07,2.07,0,0,1,1.333.345,1.356,1.356,0,0,1,.411,1.1v.526a1.329,1.329,0,0,1-.428,1.119,2.229,2.229,0,0,1-1.349.329A2.137,2.137,0,0,1,514.771,15.757Zm2.5,19.463a1.5,1.5,0,0,1-1.135.461,1.469,1.469,0,0,1-1.1-.461,1.552,1.552,0,0,1-.444-1.119V19.853a1.552,1.552,0,0,1,.444-1.119,1.462,1.462,0,0,1,1.1-.461,1.5,1.5,0,0,1,1.135.461,1.552,1.552,0,0,1,.444,1.119V34.1A1.552,1.552,0,0,1,517.272,35.22Z" transform="translate(-346.748 -12.647)"/><path class="a" d="M547.142,39.343A8.367,8.367,0,0,1,544,42.534a8.953,8.953,0,0,1-8.786,0,8.366,8.366,0,0,1-3.142-3.192,9.2,9.2,0,0,1-1.152-4.607,9.376,9.376,0,0,1,1.152-4.64,8.313,8.313,0,0,1,3.142-3.225,8.953,8.953,0,0,1,8.786,0,8.313,8.313,0,0,1,3.142,3.225,9.375,9.375,0,0,1,1.152,4.64A9.184,9.184,0,0,1,547.142,39.343Zm-2.715-7.782a5.484,5.484,0,0,0-2.007-2.172,5.5,5.5,0,0,0-5.627,0,5.483,5.483,0,0,0-2.007,2.172,6.686,6.686,0,0,0-.74,3.175,6.51,6.51,0,0,0,.74,3.126,5.519,5.519,0,0,0,2.007,2.155,5.5,5.5,0,0,0,5.627,0,5.52,5.52,0,0,0,2.007-2.155,6.511,6.511,0,0,0,.74-3.126A6.686,6.686,0,0,0,544.427,31.561Z" transform="translate(-356.497 -20.324)"/></g><path class="a" d="M28.306,7.278,16.329.38a2.882,2.882,0,0,0-2.875,0l-12,6.931A2.881,2.881,0,0,0,.016,9.8L0,23.619a2.878,2.878,0,0,0,1.444,2.5l11.977,6.894a2.887,2.887,0,0,0,1.435.383,2.853,2.853,0,0,0,1.44-.387L28.29,26.083a2.881,2.881,0,0,0,1.44-2.488l.016-13.82A2.867,2.867,0,0,0,28.306,7.278ZM25.855,23.035l-11,6.351L3.875,23.064l.016-12.672,11-6.351,10.982,6.322Z" transform="translate(0 0)"/></g></svg>